<svg width="512" height="640" viewBox="0 0 512 640" fill="none" xmlns="http://www.w3.org/2000/svg">
<rect width="512" height="640" fill="black"/>
<path d="M106.152 470.228C104.762 470.228 103.362 469.938 102.045 469.345C98.459 467.729 96.154 464.16 96.154 460.228L96.155 383.864H32C26.477 383.864 22 379.386 22 373.864V91.56C22 86.037 26.477 81.56 32 81.56H480C485.522 81.56 490 86.037 490 91.56V373.863C490 379.385 485.522 383.863 480 383.863H207.634L112.777 467.719C110.913 469.368 108.547 470.228 106.152 470.228ZM42 363.863H106.155C108.807 363.863 111.351 364.917 113.226 366.792C115.101 368.668 116.155 371.211 116.155 373.863V438.04L197.224 366.371C199.052 364.755 201.408 363.863 203.848 363.863H470V101.56H42V363.863ZM426.56 155.672C426.56 150.149 422.082 145.672 416.56 145.672H95.44C89.917 145.672 85.44 150.149 85.44 155.672C85.44 161.195 89.917 165.672 95.44 165.672H416.56C422.082 165.672 426.56 161.195 426.56 155.672ZM426.56 232.712C426.56 227.189 422.082 222.712 416.56 222.712H95.44C89.917 222.712 85.44 227.189 85.44 232.712C85.44 238.235 89.917 242.712 95.44 242.712H416.56C422.082 242.712 426.56 238.235 426.56 232.712ZM426.56 309.752C426.56 304.23 422.082 299.752 416.56 299.752H95.44C89.917 299.752 85.44 304.23 85.44 309.752C85.44 315.274 89.917 319.752 95.44 319.752H416.56C422.082 319.752 426.56 315.274 426.56 309.752Z" fill="white"/>
</svg>
